# xmcd
#
# Track frame offsets:
#  182
#  17635
#  50027
#  65820
#  77570
#  88557
#  105627
#  119782
#  131980
#  145695
#  165100
#  183120
#  198870
#  217507
#  238117
#  256445
#  271510
#  292330
#  308905
#  324625
#
# Disc length: 4558 seconds
#
# Revision: 0
# Processed by: cddbd v1.5.1PL2 Copyright (c) Steve Scherf et al.
# Submitted via: Collectorz.com_Music_Collector 6.11
#
DISCID=1f11cc14
DTITLE=Various Artist - Great Ladies Of Song [CD3)
DYEAR=1995
DGENRE=Oldies
TTITLE0=Mahalia Jackson - When the Saints Go Marching In
TTITLE1=Mahalia Jackson - In the Upper Room
TTITLE2=Mahalia Jackson - Down by the Riverside
TTITLE3=Mahalia Jackson - He's Got the Whole World in His Hands
TTITLE4=Mahalia Jackson - Joshua Fit the Battle of Jericho
TTITLE5=Mahalia Jackson - Nobody Knows the Trouble I've Seen
TTITLE6=Mahalia Jackson - Go Tell It on the Mountain
TTITLE7=Mahalia Jackson - We Shall Overcome
TTITLE8=Mahalia Jackson - I Believe
TTITLE9=Mahalia Jackson - I Found the Answer
TTITLE10=Dionne Warwick - Heartbreaker
TTITLE11=Dionne Warwick - I'll Never Love This Way Again
TTITLE12=Dionne Warwick - Run to Me
TTITLE13=Dionne Warwick - Love Power (met Jeffrey Osborne)
TTITLE14=Dionne Warwick - Walk Away
TTITLE15=Dionne Warwick - A True Love
TTITLE16=Dionne Warwick - Take Good Care of You and Me
TTITLE17=Dionne Warwick - So Amazing
TTITLE18=Dionne Warwick - All the Love in the World
TTITLE19=Dionne Warwick - Déjà Vu
EXTD=
EXTT0=
EXTT1=
EXTT2=
EXTT3=
EXTT4=
EXTT5=
EXTT6=
EXTT7=
EXTT8=
EXTT9=
EXTT10=
EXTT11=
EXTT12=
EXTT13=
EXTT14=
EXTT15=
EXTT16=
EXTT17=
EXTT18=
EXTT19=
PLAYORDER=
